<svg width="64" height="64" viewBox="0 0 64 64" fill="none" xmlns="http://www.w3.org/2000/svg">
<path d="M32 64C49.6731 64 64 49.6731 64 32C64 14.3269 49.6731 0 32 0C14.3269 0 0 14.3269 0 32C0 49.6731 14.3269 64 32 64Z" fill="url(#paint0_linear)"/>
<path d="M32 64C49.6731 64 64 49.6731 64 32C64 14.3269 49.6731 0 32 0C14.3269 0 0 14.3269 0 32C0 49.6731 14.3269 64 32 64Z" fill="url(#paint1_radial)" fill-opacity="0.35"/>
<path d="M28.8937 18.8496C28.9923 18.5627 29.2612 17.9351 29.8977 17.4241C30.3101 17.1014 30.7225 16.949 30.9914 16.8773C31.2604 16.8235 31.5921 16.7697 31.9686 16.7697C32.2555 16.7697 32.5065 16.7876 32.7306 16.8145C33.4837 16.9132 33.9947 17.3255 34.0933 17.3973C34.7208 17.8724 34.9898 18.4641 35.0973 18.742C40.799 32.261 44.8869 42.2299 45.2366 43.476C45.2993 43.7001 45.4697 44.3187 45.1917 44.8924C44.869 45.5738 44.2235 45.78 44.1249 45.8068C43.9994 45.8606 43.4167 46.0758 42.7623 45.8248C41.9734 45.52 41.7134 44.7759 41.6775 44.6683C38.4412 36.6269 35.1959 28.5764 31.9596 20.5349C30.7852 23.4844 29.6109 26.4249 28.4454 29.3743C29.1716 29.3833 29.9067 29.3922 30.6328 29.3922C30.839 29.4819 31.2514 29.697 31.5562 30.1453C31.9148 30.6832 32.121 31.5617 31.6728 32.2699C31.2783 32.8885 30.597 33.0319 30.4446 33.0678C29.2612 33.0588 28.0689 33.0499 26.8855 33.0499L22.0176 45.1524C21.8921 45.2959 21.5784 45.6365 21.0405 45.8068C20.4667 45.9861 19.9916 45.8696 19.8123 45.8158C19.6419 45.7351 19.1578 45.4572 18.862 44.8655C18.4944 44.1215 18.7096 43.4312 18.7544 43.2788L23.0038 33.0857C22.2418 33.0678 21.4887 33.0588 20.7267 33.0409C20.5026 32.9602 20.0902 32.7809 19.7944 32.3506C19.3013 31.6424 19.373 30.6025 19.9378 29.9749C20.2516 29.6253 20.637 29.4908 20.8343 29.437C22.0535 29.4281 23.2817 29.4191 24.5009 29.4191C25.9622 25.9049 27.4324 22.3727 28.8937 18.8496Z" fill="#E7E6F2"/>
<defs>
<linearGradient id="paint0_linear" x1="54.984" y1="9.73045" x2="9.19791" y2="54.1077" gradientUnits="userSpaceOnUse">
<stop stop-color="#D372DE"/>
<stop offset="0.5" stop-color="#93AADD"/>
<stop offset="1" stop-color="#73EDF9"/>
</linearGradient>
<radialGradient id="paint1_radial" cx="0" cy="0" r="1" gradientUnits="userSpaceOnUse" gradientTransform="translate(20.9067 15.3067) rotate(54.1675) scale(53.022)">
<stop stop-color="white" stop-opacity="0"/>
<stop offset="1" stop-color="#47186B"/>
</radialGradient>
</defs>
</svg>
