<svg width="64" height="64" viewBox="0 0 64 64" fill="none" xmlns="http://www.w3.org/2000/svg">
<path d="M32 64C49.6731 64 64 49.6731 64 32C64 14.3269 49.6731 0 32 0C14.3269 0 0 14.3269 0 32C0 49.6731 14.3269 64 32 64Z" fill="url(#paint0_radial)"/>
<g clip-path="url(#clip0)">
<path fill-rule="evenodd" clip-rule="evenodd" d="M37.1718 21.4926L27.1568 42.5075H26.415L36.4301 21.4926H37.1718ZM38.4654 28.4492C38.4654 27.8608 38.688 27.3822 39.1324 27.0143C39.5895 26.6465 40.1762 26.4625 40.8928 26.4625C41.3625 26.4625 41.8135 26.5116 42.2456 26.6096C42.6905 26.7077 43.2092 26.8977 43.8022 27.1801L43.4689 27.8054C42.9254 27.5355 42.462 27.3455 42.0791 27.2351C41.6959 27.137 41.3068 27.088 40.9116 27.088C40.3804 27.088 39.9662 27.2108 39.6698 27.456C39.3612 27.7012 39.2066 28.0262 39.2066 28.4309C39.2066 28.8234 39.33 29.1606 39.5773 29.4427C39.8367 29.7126 40.4111 30.1049 41.3007 30.6199C42.1038 31.0861 42.6843 31.4846 43.0427 31.8157C43.4133 32.1591 43.685 32.5271 43.858 32.9196C44.0183 33.312 44.0988 33.7842 44.0988 34.3362C44.0988 35.4277 43.7962 36.2922 43.191 36.93C42.5855 37.5555 41.7389 37.8681 40.6522 37.8681C39.6021 37.8681 38.7617 37.5677 38.1317 36.9671C37.5139 36.3781 37.2051 35.5873 37.2051 34.5934C37.2051 33.6613 37.4707 32.9012 38.0022 32.3126C38.5208 31.7116 39.3547 31.2639 40.5037 30.9695C39.7379 30.5404 39.2066 30.1356 38.9103 29.7553C38.6134 29.363 38.4654 28.9276 38.4654 28.4492ZM46.7316 27.2229L49.5863 31.7107L52.4781 27.2229H53.2754L49.9943 32.244L53.5345 37.7248H52.7005L49.5678 32.8327L46.3794 37.7248H45.5641L49.123 32.244L45.8975 27.2229H46.7316ZM39.515 31.8884C39.1439 32.0722 38.8469 32.2928 38.6244 32.5499C38.4015 32.7951 38.2345 33.0893 38.1233 33.4321C37.9997 33.7752 37.9378 34.1611 37.9378 34.5897C37.9378 35.3865 38.1852 36.0234 38.6799 36.5014C39.1744 36.9788 39.8364 37.2179 40.665 37.2179C41.5183 37.2179 42.1803 36.9731 42.6499 36.4828C43.1202 35.9802 43.355 35.2577 43.355 34.3144C43.355 33.6772 43.1818 33.126 42.8354 32.6604C42.5017 32.1948 41.9267 31.7598 41.1104 31.3554C40.4053 31.527 39.8738 31.7046 39.515 31.8884ZM15.5481 26.6096C15.9928 26.7077 16.5115 26.8977 17.1047 27.1801L16.7711 27.8054C16.2274 27.5355 15.7641 27.3455 15.3812 27.2351C14.9983 27.137 14.609 27.088 14.2137 27.088C13.6826 27.088 13.2686 27.2108 12.9722 27.456C12.6631 27.7012 12.509 28.0262 12.509 28.4309C12.509 28.8234 12.6323 29.1606 12.8797 29.4427C13.1389 29.7126 13.7135 30.1049 14.603 30.6199C15.4059 31.0861 15.9866 31.4846 16.3446 31.8157C16.7154 32.1591 16.9873 32.5271 17.1602 32.9196C17.3208 33.312 17.4011 33.7842 17.4011 34.3362C17.4011 35.4277 17.0983 36.2922 16.4932 36.93C15.8878 37.5555 15.0413 37.8681 13.9543 37.8681C12.9042 37.8681 12.0641 37.5677 11.4341 36.9671C10.8163 36.3781 10.5074 35.5873 10.5074 34.5934C10.5074 33.6613 10.7731 32.9012 11.3043 32.3126C11.8232 31.7116 12.657 31.2639 13.8061 30.9695C13.0401 30.5404 12.509 30.1356 12.2123 29.7553C11.9157 29.363 11.7676 28.9276 11.7676 28.4492C11.7676 27.8608 11.99 27.3822 12.4347 27.0143C12.8919 26.6465 13.4786 26.4625 14.1952 26.4625C14.6647 26.4625 15.1156 26.5116 15.5481 26.6096ZM12.8281 31.8884C12.457 32.0722 12.1603 32.2928 11.9375 32.5499C11.7149 32.7951 11.5479 33.0893 11.4367 33.4321C11.3129 33.7752 11.2512 34.1611 11.2512 34.5897C11.2512 35.3865 11.4985 36.0234 11.9933 36.5014C12.4878 36.9788 13.1497 37.2179 13.9784 37.2179C14.8317 37.2179 15.4934 36.9731 15.9633 36.4828C16.4333 35.9802 16.6684 35.2577 16.6684 34.3144C16.6684 33.6772 16.4952 33.126 16.1489 32.6604C15.815 32.1948 15.2397 31.7598 14.4236 31.3554C13.7187 31.527 13.1867 31.7046 12.8281 31.8884ZM26.7592 27.2229L23.2357 33.6605V37.7248H22.475V33.7153L18.933 27.2229H19.786L22.8648 32.9614L25.9617 27.2229H26.7592Z" fill="white" stroke="white"/>
</g>
<defs>
<radialGradient id="paint0_radial" cx="0" cy="0" r="1" gradientUnits="userSpaceOnUse" gradientTransform="translate(16.7024 14.9235) rotate(52.4543) scale(54.2926)">
<stop stop-color="#6196FE"/>
<stop offset="1" stop-color="#1353CE"/>
</radialGradient>
<clipPath id="clip0">
<rect width="42.9851" height="21.0149" fill="white" transform="translate(10.5074 21.4926)"/>
</clipPath>
</defs>
</svg>
