<svg width="64" height="64" viewBox="0 0 64 64" fill="none" xmlns="http://www.w3.org/2000/svg">
<path d="M32 64C49.6731 64 64 49.6731 64 32C64 14.3269 49.6731 0 32 0C14.3269 0 0 14.3269 0 32C0 49.6731 14.3269 64 32 64Z" fill="#B2E1DB"/>
<path d="M32 64C49.6731 64 64 49.6731 64 32C64 14.3269 49.6731 0 32 0C14.3269 0 0 14.3269 0 32C0 49.6731 14.3269 64 32 64Z" fill="url(#paint0_radial)" fill-opacity="0.35"/>
<path d="M25.8941 32.3147L29.9697 13.7841C29.9697 13.7841 30.0028 12.4587 28.6774 12.9805L18.2399 20.7672C18.2399 20.7672 17.3867 21.2891 17.3867 22.4488V42.1889C17.3867 42.1889 17.3784 43.2244 18.2399 43.8705C19.1015 44.5083 28.6774 51.6572 28.6774 51.6572C28.6774 51.6572 29.9531 52.2536 29.9697 50.8537C29.9863 49.4372 25.8941 32.3147 25.8941 32.3147Z" fill="#00B04C"/>
<path d="M29.1331 29.7551L44.4745 21.1401C44.4745 21.1401 45.452 20.4774 44.5656 19.8147C43.6793 19.152 34.211 12.0942 34.211 12.0942C34.211 12.0942 33.1424 11.5392 32.9187 12.5581C32.6868 13.5853 29.1331 29.7551 29.1331 29.7551ZM29.8869 32.3148L45.4602 23.5755C45.4602 23.5755 46.6862 23.1282 46.6862 24.2713V40.3583C46.6862 40.3583 46.5288 41.6505 45.4602 41.0541C44.3916 40.4494 29.8869 32.3148 29.8869 32.3148ZM29.1331 34.8662L44.4828 43.473C44.4828 43.473 45.5514 44.0777 44.5739 44.7984C43.5964 45.519 34.211 52.5271 34.211 52.5271C34.211 52.5271 33.1424 53.0821 32.9187 52.0632C32.6868 51.0443 29.1331 34.8662 29.1331 34.8662Z" fill="#00B04C"/>
<defs>
<radialGradient id="paint0_radial" cx="0" cy="0" r="1" gradientUnits="userSpaceOnUse" gradientTransform="translate(20.9067 15.3067) rotate(54.1675) scale(53.022)">
<stop stop-color="#D4FEF9"/>
<stop offset="1" stop-color="#00B04C"/>
</radialGradient>
</defs>
</svg>
