<svg width="64" height="64" viewBox="0 0 64 64" fill="none" xmlns="http://www.w3.org/2000/svg">
<path d="M32 64C49.6731 64 64 49.6731 64 32C64 14.3269 49.6731 0 32 0C14.3269 0 0 14.3269 0 32C0 49.6731 14.3269 64 32 64Z" fill="#B2E1DB"/>
<path d="M32 64C49.6731 64 64 49.6731 64 32C64 14.3269 49.6731 0 32 0C14.3269 0 0 14.3269 0 32C0 49.6731 14.3269 64 32 64Z" fill="url(#paint0_radial)" fill-opacity="0.35"/>
<path d="M49.5552 21.5258V40.069C49.5552 40.069 49.6558 42.0907 48.0092 42.0907C46.3625 42.0907 46.6827 40.0965 46.6827 40.0965V24.8375C46.6827 24.8375 46.8291 23.1451 46.024 23.9501C45.219 24.7551 36.7479 30.3629 36.7479 30.3629C36.7479 30.3629 35.8605 30.7654 35.8605 32.1285V40.7551C35.8605 40.7551 36.1349 42.3011 34.534 42.3011C34.534 42.3011 33.4271 42.3194 33.4271 41.4138V31.2411C33.4271 31.2411 33.2899 30.1342 34.534 29.2468C35.769 28.3595 47.5609 20.4006 47.5609 20.4006C47.5609 20.4006 49.4454 19.5956 49.5552 21.5258ZM30.7833 41.4229V31.6894C30.7833 31.6894 30.7833 30.3995 29.6764 29.6951L16.4391 20.4189C16.4391 20.4189 14.8931 19.7511 14.6735 21.3063V41.2034C14.6735 41.2034 14.6369 42.2828 15.5609 42.5298C15.5609 42.5298 17.1069 43.0421 17.1069 40.9838V25.0662C17.1069 25.0662 16.9057 23.8495 17.9943 24.627C19.0738 25.4046 27.49 31.2594 27.49 31.2594C27.49 31.2594 28.1487 31.5247 28.1487 32.3663V41.4321C28.1487 41.4321 28.0572 42.7677 29.4751 42.7585C30.8748 42.7402 30.7833 41.4229 30.7833 41.4229Z" fill="#1AAB9A"/>
<defs>
<radialGradient id="paint0_radial" cx="0" cy="0" r="1" gradientUnits="userSpaceOnUse" gradientTransform="translate(20.9067 15.3067) rotate(54.1675) scale(53.022)">
<stop stop-color="#C5FDF6"/>
<stop offset="1" stop-color="#1AAB9A"/>
</radialGradient>
</defs>
</svg>
