<svg width="62" height="64" viewBox="0 0 62 64" fill="none" xmlns="http://www.w3.org/2000/svg">
<g clip-path="url(#clip0)">
<path d="M31 63.7509C47.8312 63.7509 61.4762 50.1059 61.4762 33.2747C61.4762 16.4427 47.8312 2.79846 31 2.79846C14.1688 2.79846 0.523804 16.4427 0.523804 33.2747C0.523804 50.1059 14.1688 63.7509 31 63.7509Z" fill="#3B5D8B"/>
<path d="M31.2614 22.6073C31.2614 29.8675 40.8865 31.7829 45.2408 37.0438C52.4096 45.7052 40.9917 58.0366 30.2382 58.0366C15.1928 58.0366 4.71436 45.3753 4.71436 30.2271C4.71436 15.0781 12.7144 2.66669 31.0001 2.66669C32.434 2.66669 31.2614 7.45907 31.2614 22.6073Z" fill="#ECF3FF"/>
<path fill-rule="evenodd" clip-rule="evenodd" d="M11.9523 13.4651L14.619 15.7509C9.97563 21.3718 7.69342 28.5745 8.25251 35.8438L8.52375 39.3699L7.96375 37.549C6.71794 33.4999 6.42976 29.2168 7.12192 25.0374C7.81409 20.8579 9.46768 16.8964 11.9523 13.4651ZM16.5237 17.6556L18.8095 19.5604C15.8491 22.5207 13.9768 26.395 13.4967 30.5539L13.0952 34.0358L12.7935 31.3234C12.2525 26.4583 13.5865 21.57 16.5237 17.6541V17.6556Z" fill="#C9D2E2"/>
<path d="M23.7619 7.23811L25.2857 4.19049L20.4095 6.14097C18.5933 6.86735 16.9088 7.88744 15.4236 9.1604C15.1415 9.40212 14.8802 9.66718 14.6426 9.95278L13.0952 11.8095H20.3333L23.7619 7.23811Z" fill="#C9D2E2"/>
<path d="M37.2011 42.3284L43.6621 36.0899C43.7445 36.0104 43.8516 35.9613 43.9657 35.9506C44.0798 35.9399 44.1941 35.9684 44.2899 36.0312L47.4815 38.1257C49.8093 39.6532 51.5301 41.9462 52.3465 44.608C53.1629 47.2698 53.0234 50.1333 51.9523 52.7032C55.9441 48.2554 58.5953 42.7683 59.5991 36.8768C60.6029 30.9852 59.9184 24.9299 57.6247 19.411L56.5238 16.7619L59.9523 19.1787C57.7215 9.58629 49.1729 2.79771 39.3245 2.79771H37.0952L40.9047 0.512C36.6791 -0.233787 32.3276 0.269302 28.3836 1.95962L26.4285 2.79848L28.7143 0L25.4503 1.18171C24.5801 1.49692 23.7365 1.88112 22.9276 2.33067L22.1276 2.7741C20.778 3.52406 19.7406 4.73123 19.2021 6.17821C18.6637 7.6252 18.6595 9.2169 19.1905 10.6667L5.55693 4.49524C5.32303 4.38857 5.11884 4.69105 5.3055 4.86857L21.0952 19.9406L20.8948 20.3413C20.5257 21.0799 20.3334 21.8943 20.3333 22.72V22.9067C20.3333 23.2091 20.4156 23.5055 20.571 23.7653C21.1534 24.736 21.3531 25.8889 21.131 26.9989L21.0952 27.1787L18.5405 36.7581C18.2152 37.9785 17.6512 39.1223 16.8811 40.1234L15.787 41.5459C15.2963 42.184 14.9365 42.9128 14.7283 43.6904C14.5202 44.468 14.4678 45.279 14.5741 46.077L14.7699 47.5497C14.9204 48.6774 15.3756 49.7426 16.0865 50.6309L16.1764 50.7444C16.4061 51.0313 16.6849 51.2751 17 51.4644C17.9447 52.0312 18.9809 52.432 20.0621 52.6476L21.4594 52.9272C21.9695 53.029 22.4973 52.9962 22.9908 52.832C23.2506 52.7451 23.5036 52.6408 23.7482 52.5181L24.9047 51.9421L27.1904 52.3231C27.7847 52.4419 28.3981 52.4253 28.9851 52.2745C29.572 52.1237 30.1175 51.8427 30.5809 51.4522L35.4266 47.3722C36.008 46.8826 36.3757 46.1856 36.4514 45.4293L36.6472 43.472C36.6907 43.0375 36.887 42.6325 37.2011 42.3291V42.3284Z" fill="#3B5D8B"/>
<path d="M15.6003 12.3139L23.3809 18.7977L23.4678 18.8053C24.5481 18.9044 25.0457 17.4948 24.1428 16.8929L15.774 12.0647C15.6125 11.9718 15.4571 12.1943 15.6003 12.3139ZM34.3561 42.8586L34.3333 42.7977L34.2236 42.4975C34.0039 41.8966 33.6648 41.3465 33.2267 40.8802C32.7887 40.4139 32.2607 40.0412 31.6747 39.7846C31.0886 39.5279 30.4567 39.3926 29.8169 39.3868C29.1772 39.381 28.5429 39.5048 27.9523 39.7508C28.4163 39.1707 29.0237 38.7216 29.7144 38.4479C30.405 38.1743 31.1551 38.0855 31.8906 38.1905L34.3485 38.5417C34.6373 38.5828 34.9276 38.4807 35.1264 38.2682L40.523 32.5127L44.7135 32.7032C46.2682 32.6513 47.7461 32.0145 48.8516 30.92C49.957 29.8255 50.6087 28.3541 50.6761 26.8L50.8095 23.7508L51.5257 26.0586C52.8956 30.4724 49.7123 34.9866 45.0952 35.1786L47.0883 36.5737C48.8416 37.8011 50.2932 39.4106 51.3338 41.2808C52.3743 43.1509 52.9766 45.233 53.0952 47.3699C60.0087 37.8126 57.0921 24.3695 46.8399 18.5364L43.9523 16.8929L45.3664 23.6114C45.4373 23.948 45.3922 24.2987 45.2384 24.6065L44.1626 26.7581C44.0994 26.8846 44.0022 26.9911 43.8819 27.0655C43.7616 27.1399 43.6229 27.1793 43.4815 27.1794H40.9047L42.7211 24.1516C43.0224 23.6495 43.1195 23.0508 42.9923 22.4792L41.6666 16.512C40.2004 17.4894 38.4121 17.8595 36.6784 17.5444L35.1904 17.2739L37.2773 16.1691C38.6217 15.4573 39.7642 14.4168 40.5982 13.1445C41.4323 11.8723 41.9309 10.4097 42.0476 8.89294V5.43236C42.0475 5.37434 42.0301 5.31765 41.9975 5.26967C41.9648 5.22168 41.9185 5.18461 41.8646 5.16326C41.8106 5.14191 41.7515 5.13726 41.6949 5.14992C41.6382 5.16258 41.5867 5.19197 41.547 5.23427L31.2041 16.1836C30.3638 17.0735 28.8658 16.5836 28.7142 15.3684L24.9207 22.9562C24.5626 23.6721 24.382 24.4637 24.3941 25.2641C24.4062 26.0645 24.6105 26.8502 24.99 27.555C25.4309 28.374 25.6588 29.2907 25.6527 30.2208C25.6466 31.151 25.4066 32.0646 24.955 32.8777L24.5238 33.6548C24.5238 32.6613 24.2297 31.6891 23.678 30.8625L22.9999 29.8446L20.8879 37.9908C20.5232 39.3967 19.8254 40.6942 18.8537 41.7737L18.443 42.2308C17.9617 42.7658 17.604 43.4001 17.3951 44.0887C17.1863 44.7773 17.1315 45.5034 17.2346 46.2156L17.4167 47.4743C17.4563 47.7493 17.5188 48.0206 17.6049 48.2842L17.7702 48.7969C17.8569 49.0653 18.0017 49.3113 18.1942 49.5173C18.3867 49.7234 18.6223 49.8846 18.8841 49.9893L18.9222 50.0045C19.6026 50.2766 20.3287 50.416 21.0617 50.416C21.5874 50.416 22.1078 50.3162 22.5954 50.1211L23.3039 49.8377C23.6086 49.7159 23.8997 49.5627 24.1725 49.3806C25.3822 48.5744 26.2618 47.3602 26.651 45.9596L27.419 43.1939C27.579 42.6184 27.8978 42.0997 28.339 41.697C28.7801 41.2944 29.3258 41.0242 29.9135 40.9173L32.1428 40.512C31.899 40.9158 31.5074 41.2106 31.0502 41.3333L29.8571 41.6548C31.4144 41.3082 32.7759 42.7611 32.3561 44.3002C32.2186 44.8048 31.9103 45.2461 31.4838 45.5489L29.0952 47.2381L25.9455 49.5086C25.9006 49.5412 25.8657 49.5856 25.8445 49.6369C25.8232 49.6881 25.8165 49.7442 25.8251 49.799C25.8337 49.8539 25.8572 49.9052 25.8931 49.9475C25.929 49.9898 25.9758 50.0214 26.0285 50.0388L26.2091 50.0975C26.8506 50.3061 27.5379 50.3299 28.1923 50.1661C28.5366 50.08 28.8597 49.9244 29.1417 49.7089L33.3032 46.5272C33.8492 46.1098 34.2465 45.5277 34.4361 44.867C34.6257 44.2063 34.5977 43.5022 34.3561 42.8586Z" fill="white"/>
<path d="M36.6785 17.5444L35.1906 17.2739L36.0942 17.5451C38.0104 18.1204 40.0256 18.288 42.0096 18.0366L41.6667 16.5128C40.2006 17.4902 38.4122 17.8603 36.6785 17.5451V17.5444Z" fill="#C9D2E2"/>
<path fill-rule="evenodd" clip-rule="evenodd" d="M53.8572 43.1787L54.6564 40.3383C55.4624 37.473 55.5325 34.4506 54.8601 31.5509C54.1876 28.6513 52.7945 25.9682 50.8096 23.7501L50.053 26.2728C49.6112 27.746 48.7062 29.0375 47.4724 29.9557C46.2385 30.8739 44.7415 31.3699 43.2035 31.3699H40.1543C38.8804 31.3699 37.6088 31.4956 36.3593 31.7455C36.3511 31.747 36.3433 31.7501 36.3363 31.7547C36.3294 31.7593 36.3234 31.7652 36.3189 31.7722L32.1429 38.2263L34.8095 38.6073L40.0438 33.024C40.1944 32.8635 40.3779 32.7375 40.5817 32.6547C40.7856 32.5718 41.005 32.5341 41.2248 32.544L44.7143 32.7033C46.2691 32.6514 47.7469 32.0145 48.8524 30.92C49.9579 29.8256 50.6095 28.3542 50.677 26.8L50.8096 23.7509L51.5257 26.0587C52.8956 30.4724 49.7124 34.9867 45.0953 35.1787L46.6739 35.7928C48.3307 36.437 49.8296 37.43 51.069 38.7043C52.3084 39.9787 53.2593 41.5046 53.8572 43.1787ZM34.3334 42.7977L34.3562 42.8587C34.5976 43.5022 34.6256 44.2063 34.436 44.867C34.2464 45.5276 33.8492 46.1097 33.3033 46.5273L29.1417 49.709C28.8598 49.9246 28.5368 50.0808 28.1924 50.1661C27.538 50.33 26.8507 50.3062 26.2092 50.0975L25.9852 50.0244C25.9364 50.0084 25.893 49.9793 25.8597 49.9402C25.8265 49.9011 25.8047 49.8535 25.7968 49.8028C25.7889 49.7521 25.7952 49.7002 25.815 49.6528C25.8348 49.6055 25.8673 49.5645 25.909 49.5345L29.0953 47.2381L29.8214 47.0796C30.0979 47.0187 30.3623 46.9174 30.6084 46.7772L31.7055 46.1501C32.0767 45.9381 32.3922 45.6408 32.6258 45.2829C32.8595 44.9249 33.0047 44.5166 33.0495 44.0915C33.2888 41.8164 30.7303 40.3254 28.869 41.6556L28.6503 41.8118C28.2587 42.0922 27.9646 42.4884 27.8092 42.944L26.76 46.0328C26.2981 47.3935 25.3994 48.5635 24.2038 49.3608C23.9101 49.5566 23.5968 49.7212 23.269 49.8522L23.0556 49.9375C22.8956 50.0023 22.7196 50.0175 22.5505 49.9817L20.3699 49.5223C19.6141 49.363 18.9508 48.9139 18.5223 48.2713C18.5127 48.2569 18.507 48.2404 18.5057 48.2232C18.5045 48.206 18.5078 48.1887 18.5153 48.1732C18.5227 48.1576 18.5341 48.1443 18.5483 48.1345C18.5625 48.1247 18.579 48.1188 18.5962 48.1174L18.6846 48.1097C19.8611 48.0117 20.9578 47.4751 21.7571 46.6063C22.5565 45.7375 23.0001 44.6 23 43.4195V39.4675C23 39.3783 23.1196 39.3471 23.1631 39.4255L23.2728 39.6252C23.5974 40.2141 23.8442 40.8427 24.008 41.4949L24.1429 42.0358C24.7339 40.4997 25.6765 39.1233 26.895 38.0169C28.1135 36.9104 29.5742 36.1046 31.16 35.664L32.9048 35.1795L31.381 38.1478C30.1558 38.1982 28.9945 38.7077 28.1276 39.5749L27.9524 39.7501C28.543 39.5042 29.1773 39.3805 29.817 39.3864C30.4567 39.3924 31.0885 39.5278 31.6745 39.7845C32.2604 40.0412 32.7883 40.414 33.2263 40.8803C33.6643 41.3465 34.0033 41.8967 34.2229 42.4975L34.3334 42.7985V42.7977Z" fill="#C9D2E2"/>
<path fill-rule="evenodd" clip-rule="evenodd" d="M26.6838 25.4705L26.9847 27.1673C27.003 27.2716 27.0505 27.3687 27.1217 27.4471C27.1929 27.5256 27.285 27.5822 27.3871 27.6105C27.4892 27.6387 27.5972 27.6374 27.6987 27.6067C27.8001 27.576 27.8907 27.5171 27.96 27.437L35.451 18.8183C35.4944 18.7688 35.5729 18.8236 35.5402 18.8808L33.691 22.1829C33.6879 22.1884 33.686 22.1945 33.6855 22.2008C33.685 22.2071 33.6858 22.2135 33.688 22.2195C33.6902 22.2255 33.6936 22.2309 33.6981 22.2355C33.7026 22.2401 33.7079 22.2437 33.7139 22.2461C36.091 23.2252 36.1017 26.5882 33.7306 27.5825L28.3333 29.8454C27.3337 30.3459 26.1725 29.5558 26.2701 28.4435L26.5291 25.4781C26.5375 25.3875 26.6678 25.3814 26.6838 25.4705ZM21.4762 41.2747L18.827 45.0598C18.8154 45.0764 18.8059 45.0943 18.7988 45.1132C18.4438 46.0587 19.5089 46.9036 20.3493 46.3436L20.5588 46.2042C20.9081 45.9713 21.1786 45.6379 21.3344 45.248L21.4739 44.8991C21.5232 44.7761 21.5468 44.6443 21.5432 44.5118C21.5397 44.3793 21.5092 44.249 21.4535 44.1287C21.3977 44.0085 21.318 43.9009 21.2192 43.8126C21.1204 43.7243 21.0045 43.6572 20.8788 43.6153C20.8573 43.6081 20.8373 43.5968 20.8201 43.5819C20.803 43.5671 20.7889 43.549 20.7787 43.5287C20.7685 43.5084 20.7624 43.4862 20.7608 43.4636C20.7591 43.4409 20.762 43.4182 20.7691 43.3966L21.4762 41.2747Z" fill="#4B6A92"/>
<path d="M32.7951 23.507L28.3334 29.0842L32.9505 26.8846C34.3677 26.2103 34.4301 24.2171 33.0587 23.4552C33.0157 23.4313 32.9657 23.4234 32.9174 23.4329C32.8691 23.4423 32.8258 23.4686 32.7951 23.507Z" fill="#EBD56E"/>
<path d="M28.9809 43.4057L27.2437 46.8823C27.1325 47.1032 27.3938 47.3249 27.5942 47.1794L30.8399 44.8198C30.9435 44.7436 31.022 44.6369 31.0624 44.515L31.0868 44.4427C31.4426 43.3745 30.2655 42.4472 29.3108 43.0446C29.1698 43.1322 29.0556 43.2579 28.9816 43.4065L28.9809 43.4057Z" fill="white"/>
<path fill-rule="evenodd" clip-rule="evenodd" d="M32.5231 2.78702L34.1703 2.18359L32.1154 4.45712C29.9786 6.8221 28.7957 9.89605 28.7958 13.0834C26.5672 9.23883 28.3493 4.31388 32.5231 2.78702ZM24.1817 12.9965L26.4286 14.6072C25.1787 13.2437 24.3472 11.5496 24.033 9.72684C23.7188 7.90404 23.9352 6.02935 24.6564 4.32607L24.981 3.55959L23.7124 4.70702C21.1905 6.98817 21.4191 11.0148 24.1825 12.9965H24.1817ZM43.1905 6.78093V8.72683C43.1905 8.82055 43.2621 8.89826 43.3558 8.90664C46.2607 9.14865 49.082 9.99962 51.6362 11.4042L55.1692 13.347C55.2042 13.3668 55.2377 13.3211 55.2103 13.2937L53.9783 12.0617C52.8842 10.9677 51.6847 9.98435 50.3973 9.12607C48.6601 7.9678 46.6969 7.19133 44.6373 6.84797L43.3619 6.6354C43.3408 6.63185 43.3192 6.63296 43.2985 6.63864C43.2779 6.64433 43.2587 6.65445 43.2424 6.66831C43.226 6.68217 43.2129 6.69943 43.204 6.71888C43.195 6.73834 43.1904 6.75951 43.1905 6.78093ZM31.0434 11.9063L30.6191 12.7017L30.6511 12.675C32.3909 11.1834 34.4038 10.0436 36.5779 9.31883C36.6677 9.2889 36.7493 9.23856 36.8164 9.17178L39.2728 6.71464C39.281 6.70643 39.2866 6.69589 39.2887 6.68443C39.2908 6.67298 39.2893 6.66115 39.2845 6.65054C39.2797 6.63994 39.2718 6.63105 39.2618 6.62507C39.2518 6.6191 39.2402 6.61632 39.2286 6.61712C37.5272 6.73052 35.8828 7.27568 34.4507 8.20112C33.0185 9.12655 31.8459 10.4017 31.0434 11.9063ZM44.7699 12.7367L45.5996 13.2548C49.18 15.4926 52.2792 18.4206 54.7167 21.8682C57.1542 25.3157 58.8811 29.2139 59.797 33.3356L59.8297 33.4826C59.8427 33.5428 59.9311 33.5306 59.9288 33.4697L59.845 31.4407C59.6666 27.1679 58.2478 23.0394 55.7619 19.5596L54.8933 18.3306C53.7381 16.6939 52.2291 15.3383 50.4782 14.3646C48.7274 13.391 46.7797 12.8241 44.7798 12.7063C44.7623 12.7063 44.7547 12.7284 44.7699 12.7367Z" fill="#FF8484"/>
<path d="M40.3082 9.12534L35.8358 13.9421C35.8166 13.9626 35.8043 13.9885 35.8005 14.0163C35.7968 14.0441 35.8018 14.0724 35.8149 14.0972C35.828 14.122 35.8484 14.1422 35.8735 14.1548C35.8986 14.1674 35.9269 14.1719 35.9546 14.1676L36.3181 14.112C37.489 13.9318 38.5568 13.3385 39.3282 12.4394C40.0996 11.5402 40.5237 10.3946 40.5238 9.20991C40.5238 9.19117 40.5196 9.17267 40.5115 9.15579C40.5033 9.1389 40.4915 9.12405 40.4769 9.11234C40.4623 9.10064 40.4452 9.09237 40.4269 9.08816C40.4087 9.08395 40.3897 9.0839 40.3714 9.08801C40.347 9.09379 40.325 9.10681 40.3082 9.12534Z" fill="#3B5D8B"/>
<path fill-rule="evenodd" clip-rule="evenodd" d="M41.2659 26.5554L41.9257 26.9364L39.6102 30.608L39.608 30.6057V30.6072L36.0605 30.9425L31.384 38.7131L30.7897 38.307L35.4708 30.4465C35.5051 30.3581 35.5633 30.2811 35.639 30.2241C35.7146 30.167 35.8047 30.1321 35.899 30.1234L39.2712 29.7882L41.2659 26.5554Z" fill="#3B5D8B"/>
<path d="M31.2438 63.7867C48.2097 63.7867 61.9638 50.1042 61.9638 33.2267C61.9638 16.3484 48.2097 2.66669 31.2438 2.66669C14.2779 2.66669 0.523804 16.3484 0.523804 33.2267C0.523804 50.1042 14.2779 63.7867 31.2438 63.7867Z" fill="url(#paint0_radial)" fill-opacity="0.8"/>
</g>
<defs>
<radialGradient id="paint0_radial" cx="0" cy="0" r="1" gradientUnits="userSpaceOnUse" gradientTransform="translate(29.0571 7.46669) rotate(68.9504) scale(54.3466 54.39)">
<stop offset="0.186668" stop-color="white" stop-opacity="0"/>
<stop offset="1" stop-color="#020E37" stop-opacity="0.45"/>
</radialGradient>
<clipPath id="clip0">
<rect width="60.9524" height="64" fill="white" transform="translate(0.523804)"/>
</clipPath>
</defs>
</svg>
