<svg width="64" height="64" viewBox="0 0 64 64" fill="none" xmlns="http://www.w3.org/2000/svg">
<path d="M32 64C49.6731 64 64 49.6731 64 32C64 14.3269 49.6731 0 32 0C14.3269 0 0 14.3269 0 32C0 49.6731 14.3269 64 32 64Z" fill="#BAE7C9"/>
<path d="M32 64C49.6731 64 64 49.6731 64 32C64 14.3269 49.6731 0 32 0C14.3269 0 0 14.3269 0 32C0 49.6731 14.3269 64 32 64Z" fill="url(#paint0_radial)" fill-opacity="0.35"/>
<path d="M18.1752 41.3124C17.7348 41.0424 17.371 40.6639 17.1185 40.2132C16.866 39.7625 16.7334 39.2545 16.7332 38.7379V32.8811C16.7332 32.66 16.7951 32.4388 16.9013 32.253C17.2463 31.6514 18.0248 31.4479 18.6264 31.8018L31.844 39.5076C32.6137 39.9588 33.0915 40.7816 33.0915 41.684V47.7531C33.0915 48.0274 33.0118 48.3016 32.8703 48.5405C32.4368 49.2571 31.5078 49.4783 30.7912 49.0448L18.1752 41.3124ZM37.8866 30.1916C38.6563 30.6428 39.134 31.4656 39.134 32.368V44.6832C39.134 45.0459 38.9394 45.3821 38.6209 45.559L35.7279 47.1869C35.6925 47.2046 35.6483 47.2223 35.6129 47.2311V40.3923C35.6129 39.5076 35.1528 38.6848 34.392 38.2336L22.7846 31.2886V23.574C22.7846 23.3528 22.8465 23.1316 22.9527 22.9458C23.2977 22.3442 24.0763 22.1407 24.6779 22.4946L37.8866 30.1916ZM43.6638 21.0968C44.4423 21.548 44.92 22.3796 44.92 23.2732V41.2593C44.92 41.6309 44.7166 41.9671 44.3892 42.1441L41.6466 43.6215V31.1029C41.6466 30.2181 41.1866 29.4042 40.4257 28.9442L28.5617 21.8222V14.4968C28.5617 14.2757 28.6237 14.0545 28.7298 13.8598C29.0749 13.2582 29.8534 13.0547 30.455 13.3998L43.6638 21.0968Z" fill="#00B04C"/>
<defs>
<radialGradient id="paint0_radial" cx="0" cy="0" r="1" gradientUnits="userSpaceOnUse" gradientTransform="translate(20.9067 15.3067) rotate(54.1675) scale(53.022)">
<stop stop-color="#D6FFE4"/>
<stop offset="1" stop-color="#00B04C"/>
</radialGradient>
</defs>
</svg>
