<svg width="64" height="64" viewBox="0 0 64 64" fill="none" xmlns="http://www.w3.org/2000/svg">
<path d="M32 64C49.6731 64 64 49.6731 64 32C64 14.3269 49.6731 0 32 0C14.3269 0 0 14.3269 0 32C0 49.6731 14.3269 64 32 64Z" fill="#FFE3ED"/>
<path d="M32 64C49.6731 64 64 49.6731 64 32C64 14.3269 49.6731 0 32 0C14.3269 0 0 14.3269 0 32C0 49.6731 14.3269 64 32 64Z" fill="url(#paint0_radial)" fill-opacity="0.25"/>
<path d="M30.1805 27.8944C30.9556 29.2604 29.229 29.6824 28.4155 29.7592C27.1877 29.882 26.9345 29.1683 27.1724 28.2781C27.2491 27.9558 27.4256 27.6719 27.6712 27.457C27.9167 27.2422 28.2237 27.104 28.5537 27.0733C28.876 27.0426 29.1983 27.104 29.4899 27.2498C29.7738 27.388 30.0117 27.6182 30.1805 27.8944ZM34.9997 25.3697C34.1019 32.2685 46.2036 30.8335 45.9733 36.3203C47.1705 34.7625 47.6769 30.5266 44.1623 28.3472C41.0391 26.398 36.9566 27.4647 34.9997 25.3697ZM41.9753 22.7683C41.8985 22.6916 41.8141 22.6225 41.7374 22.5534C41.8141 22.6225 41.8985 22.6992 41.9753 22.7683ZM44.7839 27.7947L44.7762 27.787C44.6688 27.5798 44.546 27.388 44.4002 27.2038C43.9926 26.6496 43.4077 26.2515 42.7426 26.0757C42.2976 25.9606 41.8448 25.8916 41.392 25.8609C40.9316 25.8302 40.4558 25.8071 39.9801 25.7841C39.0285 25.7304 38.0462 25.6306 37.0947 25.3621C36.8568 25.293 36.6189 25.2163 36.3887 25.1318C36.2659 25.0858 36.1585 25.0398 36.0434 24.9937C35.9283 24.94 35.8055 24.8863 35.6827 24.8249C35.2299 24.5793 34.8155 24.2724 34.4472 23.9194C33.7105 23.2287 33.135 22.4537 32.5518 21.694C32.0069 20.9342 31.4237 20.2052 30.7944 19.5146C30.1805 18.8316 29.4515 18.2637 28.6458 17.8263C27.8095 17.4036 26.9008 17.1432 25.9676 17.0589C26.9345 16.9515 27.9091 17.0743 28.8223 17.4119C29.7431 17.7726 30.5873 18.3098 31.3009 18.9928C31.7677 19.4326 32.206 19.9016 32.6132 20.3971C35.6443 19.7985 38.1076 20.328 39.9954 21.364L40.0414 21.387C40.64 21.717 41.2079 22.1083 41.722 22.5611C41.8064 22.6302 41.8832 22.7069 41.9599 22.776C42.359 23.1443 42.735 23.551 43.0803 23.9731L43.1033 24.0115C44.2314 25.4235 44.7839 26.8968 44.7839 27.7947Z" fill="#FF007A"/>
<path d="M26.1287 17.9415C26.9038 18.0566 27.6942 18.3635 28.2007 18.9544C28.7072 19.5453 28.899 20.3127 29.0448 21.0417C29.1676 21.6096 29.2597 22.1851 29.4822 22.7223C29.5896 22.9832 29.7508 23.2134 29.8813 23.459C29.9887 23.6662 30.1882 23.8503 30.2649 24.0652C30.2803 24.0959 30.2803 24.1343 30.2803 24.165C30.2726 24.1957 30.2649 24.234 30.2419 24.257C29.9733 24.5563 29.2443 24.2264 28.9681 24.0882C28.4923 23.8503 28.0702 23.528 27.7172 23.129C26.6122 21.9012 26.0443 20.1285 26.0827 18.517C26.0827 18.3252 26.098 18.1333 26.1287 17.9415ZM39.0669 31.8004C37.394 36.4892 44.9757 39.6278 42.1364 44.3933C45.0525 43.1808 46.4338 39.5357 45.229 36.635C44.17 34.0949 41.039 33.1664 39.0669 31.8004ZM29.0448 37.9319C29.4976 37.5865 29.9964 37.3026 30.5259 37.0877C31.063 36.8729 31.6155 36.7117 32.1834 36.6043C33.3038 36.3894 34.4165 36.3357 35.3527 35.9597C35.8131 35.7755 36.2352 35.5146 36.6036 35.1769C36.9566 34.847 37.2328 34.4326 37.394 33.9798C37.5628 33.4964 37.6319 32.9822 37.5935 32.4757C37.5551 31.9309 37.4247 31.3861 37.2251 30.8796C37.6395 31.317 37.9465 31.8465 38.1076 32.4297C38.2688 33.0129 38.2918 33.6192 38.1613 34.21C38.0155 34.8316 37.7009 35.4072 37.2482 35.8599C36.8023 36.2989 36.2652 36.6343 35.675 36.8422C35.1148 37.0417 34.5239 37.1645 33.9331 37.2028C33.3575 37.2489 32.805 37.2642 32.2601 37.2949C31.1628 37.3333 30.0808 37.5558 29.0448 37.9319ZM39.7345 46.1659C39.5657 46.304 39.3968 46.4422 39.2127 46.565C39.0285 46.6877 38.829 46.7952 38.6295 46.8949C38.2074 47.1021 37.747 47.2096 37.2789 47.2019C36.005 47.1789 35.1072 46.2273 34.5853 45.153C34.2247 44.4239 33.9791 43.6335 33.557 42.9352C32.9508 41.9376 31.9072 41.1395 30.6947 41.2853C30.1959 41.3467 29.7355 41.5693 29.4592 42.0067C28.7302 43.1347 29.7738 44.7232 31.1014 44.5007C31.3295 44.4704 31.5446 44.3774 31.723 44.2321C31.9072 44.0786 32.0453 43.8714 32.1297 43.6412C32.2141 43.4033 32.2371 43.1424 32.1834 42.8969C32.1297 42.6359 31.9762 42.4057 31.7537 42.2599C32.0069 42.3827 32.2064 42.5976 32.3062 42.8585C32.4136 43.1271 32.4366 43.4263 32.3829 43.7103C32.3292 44.0096 32.1988 44.2858 32.0069 44.516C31.796 44.7518 31.5257 44.9267 31.2242 45.0225C30.9249 45.1223 30.6026 45.1606 30.288 45.1223C29.8467 45.0602 29.4304 44.8799 29.0832 44.6005C28.6688 44.2705 28.3695 43.8484 27.9935 43.4801C27.5667 43.0337 27.0656 42.6649 26.5124 42.3904C26.1287 42.2216 25.7297 42.0988 25.3153 42.022C25.1081 41.976 24.9009 41.9453 24.6937 41.9223C24.6016 41.9146 24.1335 41.8072 24.0645 41.8686C24.7091 41.27 25.4151 40.7405 26.1671 40.2877C26.9422 39.8273 27.7709 39.4743 28.6304 39.2287C29.5283 38.9755 30.4645 38.9064 31.3853 39.0139C31.8611 39.0676 32.3292 39.1904 32.7666 39.3745C33.2347 39.5587 33.6568 39.8273 34.0328 40.165C34.4012 40.518 34.7004 40.9323 34.9153 41.4005C35.1072 41.8379 35.2453 42.2906 35.3374 42.7587C35.606 44.1554 35.5062 46.3194 37.3249 46.634C37.417 46.6494 37.5167 46.6647 37.6088 46.6724L37.9081 46.6801C38.1153 46.6647 38.3148 46.634 38.5143 46.5957C38.9441 46.4805 39.3431 46.3424 39.7345 46.1659ZM27.5407 24.963C27.4717 25.2163 27.3566 25.4618 27.2031 25.669C26.9115 26.0527 26.5201 26.352 26.075 26.5362C25.675 26.7103 25.2505 26.8216 24.8165 26.8662C24.7244 26.8815 24.6247 26.8892 24.5326 26.8892C24.2563 26.8969 23.9954 26.9966 23.7805 27.1731C23.5648 27.3457 23.409 27.5821 23.3355 27.8484C23.3048 27.9789 23.2817 28.117 23.2664 28.2551C23.2203 28.6081 23.2127 28.9765 23.1743 29.4216C23.0796 30.1758 22.8618 30.9095 22.5297 31.5933C22.1 32.5064 21.6165 33.2431 21.7239 34.2945C21.8007 34.9774 22.146 35.4379 22.6064 35.906C23.4429 36.7654 25.3153 37.1491 24.8932 39.2671C24.64 40.5333 22.5604 41.8532 19.629 42.3213C19.9206 42.2753 19.253 41.1472 19.2146 41.0781C18.9 40.587 18.5546 40.1189 18.3091 39.5817C17.8179 38.5381 17.5954 37.341 17.7949 36.1976C18.0098 35.0005 18.8923 34.0796 19.6213 33.1664C20.4961 32.0767 21.4093 30.6494 21.6165 29.2297C21.6626 28.8844 21.7009 28.4546 21.7777 28.0326C21.8467 27.5568 22.0002 27.104 22.2151 26.6743C22.3609 26.3981 22.5604 26.1448 22.7906 25.9299C22.9135 25.8176 22.9947 25.667 23.0212 25.5026C23.0477 25.3382 23.0178 25.1697 22.9364 25.0244L18.263 16.5832L24.97 24.9017C25.0457 24.9986 25.1423 25.0772 25.2526 25.1316C25.3628 25.1861 25.4839 25.215 25.6069 25.2163C25.7287 25.2195 25.8496 25.1957 25.961 25.1466C26.0725 25.0975 26.1717 25.0243 26.2515 24.9323C26.3359 24.8326 26.382 24.7098 26.3896 24.5793C26.3896 24.4489 26.3513 24.3184 26.2745 24.2187C25.8371 23.6585 25.3767 23.0829 24.9239 22.5228L23.2357 20.4201L19.8438 16.2302L15.2242 10.4057L20.2813 15.8542L23.888 19.8599L25.6837 21.8705C26.2822 22.5458 26.8808 23.1981 27.4717 23.9117L27.5714 24.0345L27.5944 24.2187C27.6098 24.4566 27.5944 24.7098 27.5407 24.963Z" fill="#FF007A"/>
<defs>
<radialGradient id="paint0_radial" cx="0" cy="0" r="1" gradientUnits="userSpaceOnUse" gradientTransform="translate(20.9067 15.3067) rotate(54.1675) scale(53.022)">
<stop stop-color="#FFF1F6"/>
<stop offset="1" stop-color="#FF007A"/>
</radialGradient>
</defs>
</svg>
