<svg width="22" height="30" viewBox="0 0 22 30" fill="none" xmlns="http://www.w3.org/2000/svg">
<g clip-path="url(#clip0)">
<path d="M22 6.84375V26.7812C22 28.2828 20.7688 29.5 19.25 29.5H2.75C1.2312 29.5 0 28.2828 0 26.7812V6.84375C0 5.34221 1.2312 4.125 2.75 4.125H7.33333C7.33333 2.12615 8.97818 0.5 11 0.5C13.0218 0.5 14.6667 2.12615 14.6667 4.125H19.25C20.7688 4.125 22 5.34221 22 6.84375ZM11 2.76562C10.2406 2.76562 9.625 3.37423 9.625 4.125C9.625 4.87577 10.2406 5.48438 11 5.48438C11.7594 5.48438 12.375 4.87577 12.375 4.125C12.375 3.37423 11.7594 2.76562 11 2.76562ZM16.5 9.22266V8.08984C16.5 7.99971 16.4638 7.91327 16.3993 7.84954C16.3349 7.7858 16.2474 7.75 16.1562 7.75H5.84375C5.75258 7.75 5.66515 7.7858 5.60068 7.84954C5.53622 7.91327 5.5 7.99971 5.5 8.08984V9.22266C5.5 9.31279 5.53622 9.39923 5.60068 9.46296C5.66515 9.5267 5.75258 9.5625 5.84375 9.5625H16.1562C16.2474 9.5625 16.3349 9.5267 16.3993 9.46296C16.4638 9.39923 16.5 9.31279 16.5 9.22266Z" fill="#1595A9"/>
</g>
<defs>
<clipPath id="clip0">
<rect width="22" height="29" fill="white" transform="translate(0 0.5)"/>
</clipPath>
</defs>
</svg>
