<svg width="49" height="45" viewBox="0 0 49 45" fill="none" xmlns="http://www.w3.org/2000/svg">
<path d="M46.3751 21.2108L42.201 13.7527C42.2902 13.5686 42.3572 13.3614 42.3572 13.1312C42.3572 12.4406 41.7992 11.8651 41.1296 11.842L36.509 3.60122C36.5536 3.46311 36.5982 3.32501 36.5982 3.18691C36.5982 2.45034 36.0179 1.87482 35.3259 1.87482C34.9242 1.87482 34.5893 2.05898 34.3437 2.35822H25.4599C25.2367 2.05907 24.9018 1.8749 24.5001 1.8749C24.0983 1.8749 23.7635 2.05907 23.5402 2.3583H14.701C14.4554 2.05907 14.1207 1.8749 13.7188 1.8749C13.0269 1.8749 12.4465 2.45034 12.4465 3.187C12.4465 3.3251 12.4912 3.48623 12.5358 3.6013L7.87057 11.9573C7.42424 12.1644 7.11165 12.6018 7.11165 13.1313C7.11165 13.1772 7.13399 13.2233 7.13399 13.2694L2.69199 21.1879C2.08932 21.303 1.64282 21.8324 1.64282 22.477C1.64282 23.0985 2.06691 23.6279 2.64732 23.766L7.24557 31.9609C7.2009 32.099 7.17857 32.214 7.17857 32.3752C7.17857 32.9967 7.60265 33.5261 8.18307 33.6412L12.4912 41.3525C12.4465 41.4906 12.4019 41.6518 12.4019 41.8129C12.4019 42.5495 12.9822 43.125 13.6742 43.125C14.076 43.125 14.4108 42.9408 14.6341 42.6646H23.5403C23.7635 42.9407 24.1207 43.1249 24.5001 43.1249C24.8795 43.1249 25.2367 42.9407 25.4599 42.6645H34.3885C34.6117 42.9177 34.9465 43.0788 35.3036 43.0788C36.0179 43.0788 36.576 42.4804 36.576 41.7668C36.576 41.6286 36.5537 41.5136 36.5091 41.3985L40.8171 33.6411C41.3975 33.526 41.8216 32.9966 41.8216 32.3751C41.8216 32.237 41.7993 32.0989 41.7546 31.9608L46.3306 23.7659C46.9109 23.6509 47.3574 23.1214 47.3574 22.4769C47.3572 21.8554 46.9331 21.3259 46.3751 21.2108ZM13.2947 39.2347L9.65632 32.7204H13.2947V39.2347ZM13.2947 32.0298H9.65632C9.63399 31.9377 9.58932 31.8457 9.54474 31.7536L13.2947 27.6793V32.0298ZM13.2947 26.6663L9.09824 31.2471C8.98665 31.2011 8.87499 31.132 8.7634 31.109L4.12066 22.8222C4.16524 22.7071 4.16524 22.5919 4.16524 22.4769C4.16524 22.3618 4.16524 22.2698 4.14291 22.1776L8.47332 14.4433C8.69657 14.4202 8.91974 14.3511 9.12065 14.213L13.2947 18.6788V26.6663H13.2947ZM13.2947 17.873L9.47774 13.7987C9.58932 13.6146 9.65632 13.3844 9.65632 13.1313C9.65632 13.1082 9.63399 13.0622 9.63399 13.0391L13.2947 11.681V17.873ZM13.2947 10.9443L9.65632 12.3025L13.2947 5.8111V10.9443ZM40.5046 14.3052L40.5716 14.4202L37.6251 28.7841L32.3126 23.0063L40.4822 14.2821L40.5046 14.3052ZM24.8126 31.0169L25.7724 32.0298H23.8751L24.8126 31.0169ZM24.7902 30.0501L17.8483 22.7071L24.4777 15.4561L31.3974 22.9833L24.7902 30.0501ZM25.2367 30.5565L31.8438 23.4897L37.4688 29.6128L36.9778 32.0298H26.6429L25.2367 30.5565ZM34.701 4.31493C34.7902 4.36099 34.8795 4.40705 34.9911 4.43008L39.8126 13.0852V13.1313C39.8126 13.3844 39.8795 13.6146 39.9911 13.7987L31.8661 22.4999L24.9466 14.9727L34.701 4.31493ZM33.9421 4.13076L24.4777 14.4663L19.7232 9.28701L33.5848 4.13076H33.9421ZM23.6518 4.13076C23.875 4.3609 24.1652 4.499 24.5001 4.499C24.835 4.499 25.1251 4.3609 25.3483 4.13076H31.5983L19.2322 8.73452L14.9912 4.13076H23.6518ZM13.9644 4.61416L14.0537 4.43008C14.129 4.41023 14.2034 4.38718 14.2769 4.36099L18.5403 8.98786L13.9644 10.6912V4.61416ZM13.9644 11.4278L19.0313 9.54027L24.009 14.9727L17.3796 22.2007L13.9644 18.5867V11.4278ZM13.9644 19.3923L17.0001 22.638L13.9644 25.9298V19.3923ZM13.9644 26.9426L17.4688 23.1215L24.3662 30.5106L22.9376 32.0298H13.9644V26.9426ZM14.5447 40.869C14.4108 40.7309 14.2546 40.6389 14.0537 40.5698L13.9644 40.4317V32.7204H22.2902L14.6563 40.869H14.5447ZM25.3706 40.869C25.1474 40.6619 24.835 40.5008 24.5001 40.5008C24.1652 40.5008 23.8528 40.6619 23.6295 40.869H15.5937L23.2276 32.7204H26.4197L34.0536 40.869H25.3706ZM35.3706 39.8562L35.0135 40.5007C34.9019 40.5238 34.8126 40.5697 34.7233 40.6158L27.2903 32.7203H36.8217L35.3706 39.8562ZM36.442 37.9456L37.5135 32.7204H39.3438L36.442 37.9456ZM39.3438 32.0298H37.6474L38.0268 30.2113L39.4554 31.7766C39.4108 31.8456 39.3661 31.9376 39.3438 32.0298ZM44.8572 22.7991L40.2366 31.109C40.1251 31.155 40.0134 31.2011 39.9018 31.2701L38.1831 29.3826L41.0626 15.295L44.8795 22.1086C44.8572 22.2237 44.8126 22.3388 44.8126 22.4769C44.8126 22.5919 44.8349 22.6841 44.8572 22.7991Z" fill="white"/>
</svg>
