<svg width="20" height="22" viewBox="0 0 20 22" fill="none" xmlns="http://www.w3.org/2000/svg">
<path d="M14.2857 19.25V20.9688C14.2857 21.5383 13.806 22 13.2143 22H1.07143C0.479688 22 0 21.5383 0 20.9688V5.15625C0 4.5867 0.479688 4.125 1.07143 4.125H4.28571V16.8438C4.28571 18.1706 5.40719 19.25 6.78571 19.25H14.2857ZM14.2857 4.46875V0H6.78571C6.19397 0 5.71429 0.461699 5.71429 1.03125V16.8438C5.71429 17.4133 6.19397 17.875 6.78571 17.875H18.9286C19.5203 17.875 20 17.4133 20 16.8438V5.5H15.3571C14.7679 5.5 14.2857 5.03594 14.2857 4.46875ZM19.6862 3.13547L16.7424 0.302027C16.5414 0.108643 16.2689 1.42998e-06 15.9848 0L15.7143 0V4.125H20V3.86465C20 3.59116 19.8871 3.32887 19.6862 3.13547Z" fill="#3F75FF"/>
</svg>
