<svg width="56" height="56" viewBox="0 0 56 56" fill="none" xmlns="http://www.w3.org/2000/svg">
<path d="M45.71 14.3809C41.468 11.0867 34.7603 10.5287 34.4767 10.505C34.0287 10.4678 33.6035 10.713 33.4198 11.1087C33.4128 11.1222 33.0383 12.1724 32.676 13.1853C37.6058 14.019 40.9552 15.8691 41.1337 15.9705C41.9702 16.4406 42.2503 17.4773 41.762 18.2839C41.4383 18.8217 40.852 19.1227 40.25 19.1227C39.9507 19.1227 39.6497 19.05 39.3733 18.8944C39.3242 18.8656 34.4102 16.1633 28.0035 16.1633C21.595 16.1633 16.6793 18.8673 16.6303 18.8944C15.7955 19.3628 14.7245 19.0872 14.2397 18.2788C13.755 17.4739 14.0368 16.4406 14.8698 15.9705C15.0483 15.8691 18.41 14.0123 23.3538 13.1803C22.9722 12.1555 22.5872 11.1222 22.5802 11.1087C22.3965 10.7113 21.9713 10.461 21.5233 10.505C21.2397 10.527 14.532 11.085 10.234 14.4249C7.987 16.4305 3.5 28.1564 3.5 38.2943C3.5 38.4736 3.54725 38.6478 3.64 38.8034C6.73925 44.0626 15.1883 45.4391 17.1133 45.4983C17.1255 45.5 17.136 45.5 17.1465 45.5C17.486 45.5 17.8062 45.3427 18.0075 45.0772L20.09 42.3512C15.5225 41.2875 13.1075 39.6151 12.9622 39.5119C12.1853 38.9589 12.0173 37.9003 12.5895 37.1478C13.16 36.3987 14.252 36.2329 15.029 36.7825C15.0938 36.8231 19.551 39.8383 28 39.8383C36.4823 39.8383 40.9272 36.8113 40.971 36.7808C41.748 36.2363 42.8435 36.4004 43.4122 37.1546C43.9792 37.9054 43.8148 38.9572 43.0412 39.5085C42.896 39.6117 40.4932 41.2808 35.9362 42.3445L37.9925 45.0755C38.1937 45.3427 38.514 45.4983 38.8535 45.4983C38.8657 45.4983 38.8763 45.4983 38.8867 45.4966C40.8135 45.4374 49.2625 44.0609 52.36 38.8017C52.4528 38.6461 52.5 38.4719 52.5 38.2927C52.5 28.1564 48.013 16.4305 45.71 14.3809ZM21 34.7651C19.0662 34.7651 17.5 32.8728 17.5 30.5374C17.5 28.202 19.0662 26.3097 21 26.3097C22.9338 26.3097 24.5 28.202 24.5 30.5374C24.5 32.8728 22.9338 34.7651 21 34.7651ZM35 34.7651C33.0662 34.7651 31.5 32.8728 31.5 30.5374C31.5 28.202 33.0662 26.3097 35 26.3097C36.9338 26.3097 38.5 28.202 38.5 30.5374C38.5 32.8728 36.9338 34.7651 35 34.7651Z" fill="#3F75FF"/>
</svg>
