<svg width="56" height="56" viewBox="0 0 56 56" fill="none" xmlns="http://www.w3.org/2000/svg">
<path d="M27.6169 26.9405L7.71861 13.6485C8.23625 12.9186 9.04676 12.4551 9.95603 12.4551H46.2791C46.6901 12.4548 47.0962 12.5519 47.4682 12.7392C47.8403 12.9266 48.1691 13.1997 48.4313 13.539L28.6147 26.9405C28.4652 27.0409 28.2923 27.0941 28.1158 27.0941C27.9394 27.0941 27.7665 27.0409 27.6169 26.9405ZM30.3004 28.1449L30.3072 28.1376L49 15.5062V40.9113C49 42.5901 47.7297 43.9551 46.1632 43.9551H9.83678C9.46396 43.9551 9.0948 43.8763 8.75041 43.7233C8.40601 43.5703 8.09313 43.346 7.82967 43.0634C7.56621 42.7807 7.35732 42.4451 7.21496 42.0758C7.0726 41.7066 6.99955 41.3108 7 40.9113V15.6558L25.6962 28.1376C27.1027 29.0792 28.8871 29.0865 30.3004 28.1449Z" fill="#3F75FF"/>
</svg>
