<svg width="27" height="26" viewBox="0 0 27 26" fill="none" xmlns="http://www.w3.org/2000/svg">
<path d="M13.5 25.0066C13.5 25.5553 13.9463 26.004 14.4934 25.9627C21.209 25.4552 26.5001 19.8455 26.5001 13C26.5001 6.15449 21.209 0.544779 14.4934 0.0373282C13.9463 -0.00401083 13.5 0.444701 13.5 0.993342V5.28243C13.5 5.83107 13.9474 6.26812 14.4901 6.34821C17.7343 6.82697 20.2242 9.62272 20.2242 13C20.2242 16.3773 17.7343 19.173 14.4901 19.6518C13.9474 19.7319 13.5 20.1689 13.5 20.7176V25.0066Z" fill="#3F75FF"/>
<path d="M9.46543 2.00746C9.46543 1.33211 8.80498 0.85509 8.18869 1.13129C3.65681 3.16235 0.499878 7.71271 0.499878 13.0004C0.499878 18.2881 3.65681 22.8385 8.18869 24.8695C8.80498 25.1457 9.46543 24.6687 9.46543 23.9934V2.00746Z" fill="#3F75FF"/>
</svg>
