<svg width="43" height="43" viewBox="0 0 43 43" fill="none" xmlns="http://www.w3.org/2000/svg">
<g clip-path="url(#clip0)">
<path d="M42.4152 1.60404C42.3613 1.35272 42.2359 1.12232 42.0541 0.940561C41.8723 0.758797 41.6419 0.633396 41.3906 0.579431C38.6863 -6.10352e-05 36.5708 -6.10352e-05 34.4628 -6.10352e-05C25.7956 -6.10352e-05 20.5969 4.63588 16.7177 10.7499H7.96653C7.21915 10.7506 6.48667 10.959 5.85088 11.3518C5.21509 11.7447 4.70103 12.3066 4.36612 12.9747L0.21561 21.2723C0.0623322 21.5797 -0.00985233 21.9212 0.00590721 22.2643C0.0216668 22.6074 0.124847 22.9408 0.305657 23.2328C0.486466 23.5249 0.738906 23.7659 1.03902 23.9329C1.33913 24.1 1.67695 24.1876 2.02043 24.1874H10.7355L8.84836 26.0746C8.34448 26.5786 8.06142 27.262 8.06142 27.9747C8.06142 28.6874 8.34448 29.3709 8.84836 29.8749L13.1232 34.1505C13.3727 34.4001 13.669 34.5981 13.9951 34.7332C14.3212 34.8683 14.6708 34.9379 15.0237 34.9379C15.3767 34.9379 15.7262 34.8683 16.0523 34.7332C16.3784 34.5981 16.6747 34.4001 16.9243 34.1505L18.8114 32.2634V40.9843C18.8113 41.3277 18.8989 41.6654 19.066 41.9654C19.233 42.2654 19.4739 42.5177 19.7658 42.6985C20.0577 42.8793 20.391 42.9825 20.734 42.9984C21.077 43.0142 21.4183 42.9422 21.7257 42.7891L30.0149 38.6412C30.6842 38.3069 31.2469 37.7926 31.6401 37.1562C32.0332 36.5197 32.2412 35.7863 32.2405 35.0382V26.2694C38.337 22.3809 42.9905 17.1655 42.9905 8.54115C42.9989 6.42474 42.9989 4.30834 42.4152 1.60404ZM32.2489 14.1093C31.5845 14.1093 30.935 13.9123 30.3826 13.5432C29.8301 13.174 29.3995 12.6494 29.1453 12.0355C28.891 11.4217 28.8245 10.7462 28.9541 10.0946C29.0837 9.4429 29.4037 8.84432 29.8735 8.3745C30.3433 7.90469 30.9419 7.58474 31.5935 7.45511C32.2452 7.32549 32.9207 7.39202 33.5345 7.64628C34.1483 7.90054 34.673 8.33112 35.0421 8.88357C35.4113 9.43602 35.6083 10.0855 35.6083 10.7499C35.6083 11.6409 35.2544 12.4954 34.6244 13.1254C33.9944 13.7554 33.1399 14.1093 32.2489 14.1093Z" fill="white"/>
</g>
<defs>
<clipPath id="clip0">
<rect width="43" height="43" fill="white"/>
</clipPath>
</defs>
</svg>
