<svg width="41" height="43" viewBox="0 0 41 43" fill="none" xmlns="http://www.w3.org/2000/svg">
<g clip-path="url(#clip0)">
<path d="M35.1591 13.4375H5.84089C3.14219 13.4375 0.954529 15.2423 0.954529 17.4688V36.2812C0.954529 38.5077 3.14219 40.3125 5.84089 40.3125H7.46968V41.6562C7.46968 42.3987 8.19856 43 9.09847 43H12.356C13.2559 43 13.9848 42.3987 13.9848 41.6562V40.3125H27.0151V41.6562C27.0151 42.3987 27.744 43 28.6439 43H31.9015C32.8014 43 33.5303 42.3987 33.5303 41.6562V40.3125H35.1591C37.8578 40.3125 40.0454 38.5077 40.0454 36.2812V17.4688C40.0454 15.2423 37.8578 13.4375 35.1591 13.4375ZM33.5303 31.5781C33.5303 31.9493 33.1658 32.25 32.7159 32.25H8.28407C7.83412 32.25 7.46968 31.9493 7.46968 31.5781V30.2344C7.46968 29.8632 7.83412 29.5625 8.28407 29.5625H32.7159C33.1658 29.5625 33.5303 29.8632 33.5303 30.2344V31.5781ZM33.5303 23.5156C33.5303 23.8868 33.1658 24.1875 32.7159 24.1875H8.28407C7.83412 24.1875 7.46968 23.8868 7.46968 23.5156V22.1719C7.46968 21.8007 7.83412 21.5 8.28407 21.5H32.7159C33.1658 21.5 33.5303 21.8007 33.5303 22.1719V23.5156ZM15.6136 4.03125H25.3863V10.75H30.2727V4.03125C30.2727 1.80482 28.085 0 25.3863 0H15.6136C12.9149 0 10.7273 1.80482 10.7273 4.03125V10.75H15.6136V4.03125Z" fill="white"/>
</g>
<defs>
<clipPath id="clip0">
<rect width="39.0909" height="43" fill="white" transform="translate(0.954529)"/>
</clipPath>
</defs>
</svg>
