<svg width="169" height="26" viewBox="0 0 169 26" fill="none" xmlns="http://www.w3.org/2000/svg">
    <path
        d="M13.5 25.0066C13.5 25.5553 13.9463 26.004 14.4934 25.9627C21.209 25.4552 26.5001 19.8455 26.5001 13C26.5001 6.15449 21.209 0.544779 14.4934 0.0373282C13.9463 -0.00401083 13.5 0.444701 13.5 0.993342V5.28243C13.5 5.83107 13.9474 6.26812 14.4901 6.34821C17.7343 6.82697 20.2242 9.62272 20.2242 13C20.2242 16.3773 17.7343 19.173 14.4901 19.6518C13.9474 19.7319 13.5 20.1689 13.5 20.7176V25.0066Z"
        fill="#3F75FF" />
    <path
        d="M9.46544 2.00746C9.46544 1.33211 8.80499 0.85509 8.1887 1.13129C3.65681 3.16235 0.499886 7.71271 0.499886 13.0004C0.499886 18.2881 3.65681 22.8385 8.1887 24.8695C8.80499 25.1457 9.46544 24.6687 9.46544 23.9934V2.00746Z"
        fill="#3F75FF" />
    <path
        d="M34.0771 6.2H40.1191C41.5631 6.2 42.8361 6.47867 43.9381 7.036C45.0528 7.58067 45.9141 8.35333 46.5221 9.354C47.1428 10.3547 47.4531 11.52 47.4531 12.85C47.4531 14.18 47.1428 15.3453 46.5221 16.346C45.9141 17.3467 45.0528 18.1257 43.9381 18.683C42.8361 19.2277 41.5631 19.5 40.1191 19.5H34.0771V6.2ZM39.9671 16.973C41.2971 16.973 42.3548 16.6057 43.1401 15.871C43.9381 15.1237 44.3371 14.1167 44.3371 12.85C44.3371 11.5833 43.9381 10.5827 43.1401 9.848C42.3548 9.10067 41.2971 8.727 39.9671 8.727H37.1551V16.973H39.9671ZM60.0724 17.03V19.5H49.7744V6.2H59.8254V8.67H52.8334V11.558H59.0084V13.952H52.8334V17.03H60.0724ZM75.1229 6.2L69.3659 19.5H66.3259L60.5879 6.2H63.9129L67.9599 15.7L72.0639 6.2H75.1229ZM86.5314 17.03V19.5H76.2334V6.2H86.2844V8.67H79.2924V11.558H85.4674V13.952H79.2924V17.03H86.5314ZM88.9804 6.2H92.0584V16.992H98.7274V19.5H88.9804V6.2ZM106.666 19.728C105.285 19.728 104.037 19.4303 102.923 18.835C101.821 18.2397 100.953 17.4227 100.32 16.384C99.6989 15.3327 99.3886 14.1547 99.3886 12.85C99.3886 11.5453 99.6989 10.3737 100.32 9.335C100.953 8.28367 101.821 7.46033 102.923 6.865C104.037 6.26967 105.285 5.972 106.666 5.972C108.046 5.972 109.288 6.26967 110.39 6.865C111.492 7.46033 112.359 8.28367 112.993 9.335C113.626 10.3737 113.943 11.5453 113.943 12.85C113.943 14.1547 113.626 15.3327 112.993 16.384C112.359 17.4227 111.492 18.2397 110.39 18.835C109.288 19.4303 108.046 19.728 106.666 19.728ZM106.666 17.106C107.451 17.106 108.16 16.9287 108.794 16.574C109.427 16.2067 109.921 15.7 110.276 15.054C110.643 14.408 110.827 13.6733 110.827 12.85C110.827 12.0267 110.643 11.292 110.276 10.646C109.921 10 109.427 9.49967 108.794 9.145C108.16 8.77767 107.451 8.594 106.666 8.594C105.88 8.594 105.171 8.77767 104.538 9.145C103.904 9.49967 103.404 10 103.037 10.646C102.682 11.292 102.505 12.0267 102.505 12.85C102.505 13.6733 102.682 14.408 103.037 15.054C103.404 15.7 103.904 16.2067 104.538 16.574C105.171 16.9287 105.88 17.106 106.666 17.106ZM122.013 6.2C123.191 6.2 124.211 6.39633 125.072 6.789C125.946 7.18167 126.617 7.739 127.086 8.461C127.555 9.183 127.789 10.038 127.789 11.026C127.789 12.0013 127.555 12.8563 127.086 13.591C126.617 14.313 125.946 14.8703 125.072 15.263C124.211 15.643 123.191 15.833 122.013 15.833H119.334V19.5H116.256V6.2H122.013ZM121.842 13.325C122.766 13.325 123.47 13.1287 123.951 12.736C124.432 12.3307 124.673 11.7607 124.673 11.026C124.673 10.2787 124.432 9.70867 123.951 9.316C123.47 8.91067 122.766 8.708 121.842 8.708H119.334V13.325H121.842ZM140.284 17.03V19.5H129.986V6.2H140.037V8.67H133.045V11.558H139.22V13.952H133.045V17.03H140.284ZM151.207 19.5L148.642 15.795H148.49H145.811V19.5H142.733V6.2H148.49C149.668 6.2 150.688 6.39633 151.549 6.789C152.423 7.18167 153.095 7.739 153.563 8.461C154.032 9.183 154.266 10.038 154.266 11.026C154.266 12.014 154.026 12.869 153.544 13.591C153.076 14.3003 152.404 14.845 151.53 15.225L154.513 19.5H151.207ZM151.15 11.026C151.15 10.2787 150.91 9.70867 150.428 9.316C149.947 8.91067 149.244 8.708 148.319 8.708H145.811V13.344H148.319C149.244 13.344 149.947 13.1413 150.428 12.736C150.91 12.3307 151.15 11.7607 151.15 11.026ZM161.075 19.728C160.024 19.728 159.004 19.5887 158.016 19.31C157.041 19.0187 156.255 18.645 155.66 18.189L156.705 15.871C157.275 16.289 157.953 16.6247 158.738 16.878C159.523 17.1313 160.309 17.258 161.094 17.258C161.968 17.258 162.614 17.1313 163.032 16.878C163.45 16.612 163.659 16.2637 163.659 15.833C163.659 15.5163 163.532 15.2567 163.279 15.054C163.038 14.8387 162.722 14.6677 162.329 14.541C161.949 14.4143 161.43 14.275 160.771 14.123C159.758 13.8823 158.928 13.6417 158.282 13.401C157.636 13.1603 157.079 12.774 156.61 12.242C156.154 11.71 155.926 11.0007 155.926 10.114C155.926 9.34133 156.135 8.64467 156.553 8.024C156.971 7.39067 157.598 6.89033 158.434 6.523C159.283 6.15567 160.315 5.972 161.531 5.972C162.38 5.972 163.209 6.07333 164.02 6.276C164.831 6.47867 165.54 6.77 166.148 7.15L165.198 9.487C163.969 8.79033 162.741 8.442 161.512 8.442C160.651 8.442 160.011 8.58133 159.593 8.86C159.188 9.13867 158.985 9.506 158.985 9.962C158.985 10.418 159.219 10.76 159.688 10.988C160.169 11.2033 160.898 11.4187 161.873 11.634C162.886 11.8747 163.716 12.1153 164.362 12.356C165.008 12.5967 165.559 12.9767 166.015 13.496C166.484 14.0153 166.718 14.7183 166.718 15.605C166.718 16.365 166.503 17.0617 166.072 17.695C165.654 18.3157 165.021 18.8097 164.172 19.177C163.323 19.5443 162.291 19.728 161.075 19.728Z"
        fill="white" />
</svg>