<svg xmlns="http://www.w3.org/2000/svg" viewBox="0 0 800 800" enable-background="new 0 0 800 800"><style type="text/css">.st0{fill:url(#SVGID_1_);} .st1{fill:#DEDEDE;}</style><linearGradient id="SVGID_1_" x1="124.86" x2="643.452" y1="710.592" y2="241.2" gradientUnits="userSpaceOnUse"><stop offset=".229" stop-color="#8ADAE2"/><stop offset=".72" stop-color="#9EADCE"/><stop offset="1" stop-color="#C499C9"/></linearGradient><path d="M427.7 668.2c0-6 0-12 0-18 4-14.5 18.2-23.5 32.2-21.2 12.7 2.1 22.7 13.1 23.6 26.6 0 15.3 0 30.6 0 45.9 3.4 14.1 16.9 23.4 30.9 21.6 13.3-1.8 23.8-13.2 24.2-27 0-13.6 0-27.1 0-40.7.7-14.7 12.6-26.4 26.8-26.9 13.4-.5 25.6 9 28.5 22.5 0 29.2 0 58.5 0 87.7 1.5 15.8 14.8 27.2 28.9 26.6 11.7-.5 22.3-9.3 25.5-21.8.2-159 .5-318 .7-477-2-20-11.9-96.4-77.1-158.9C556.6 93 498 40.4 406.7 37.3c-16.2-.6-108.9-2.2-182.5 70.3-61.8 60.8-70.6 134.8-72.4 155 0 160.8 0 321.5 0 482.3 3.5 12 14.3 20.3 26.4 20.5 13 .2 24.7-9 27.6-22.1 0-30.5 0-61 0-91.5 2.7-13.7 14.9-23.6 28.6-23.2 13.1.3 24.5 9.9 27.2 23 0 16.6 0 33.1 0 49.7 2.9 13.1 14.7 22.4 27.9 22.1 13.7-.3 25.4-10.8 27.1-24.6 0-15.6 0-31.3 0-46.9 5.2-13.2 17-21.8 29.1-21.4 11 .3 18.7 7.9 19.5 8.8 1.6 1.7 6.3 6.8 7.7 14.5.8 4.3-.1 5.3.1 10.5.1 3 .5 12.4 5.6 19.6 6.3 8.8 17.2 10.7 20.6 11.1 1.8.1 11.2.7 19.4-6.3 8.8-8.1 9-18.8 9.1-20.5z" class="st0"/><circle cx="301" cy="269.5" r="53.1" class="st1"/><circle cx="484.7" cy="269.5" r="53.1" class="st1"/><path d="M411.3 392c25.5-3 30.8-26.3 30.8-26.3 4-16.4-16.3-11.5-16.3-11.5s-27.9 5.7-47.3 0-16.8 11.5-16.8 11.5 5.2 31.6 49.6 26.3z" class="st1"/></svg>