<svg xmlns="http://www.w3.org/2000/svg" viewBox="0 0 800 800"><path fill="#0ad394" d="M217.9 540.4a45.73 45.73 0 01-21.9-39v-88.8a19.1 19.1 0 0128.7-16.5L425.1 513a38.28 38.28 0 0118.9 33v92c0 4.2-1.2 8.4-3.3 12a22.91 22.91 0 01-31.5 7.6L217.9 540.4zm298.7-168.5a38.28 38.28 0 0118.9 33v186.7c0 5.5-3 10.6-7.8 13.3l-43.9 24.7c-.5.3-1.2.5-1.8.7V526.5c0-13.4-7-25.9-18.6-32.8l-176-105.3v-117a19.1 19.1 0 0128.7-16.5l200.5 117zM604.3 234c11.8 6.8 19 19.4 19 33v272.7c0 5.6-3.1 10.7-8 13.4l-41.6 22.5V385.7c0-13.4-7-25.8-18.5-32.7L375.4 245.1v-111c0-3.4.9-6.7 2.5-9.6 5.3-9.1 17-12.2 26.1-6.9L604.3 234z"/></svg>